<svg width="15" height="15" viewBox="0 0 15 15" fill="none" xmlns="http://www.w3.org/2000/svg">
<g clip-path="url(#clip0_1_165)">
<path d="M7.69294 1.89018C7.64491 1.87915 7.59518 1.87769 7.54658 1.88588C7.49799 1.89408 7.45149 1.91177 7.40974 1.93795L2.96516 4.73277C2.88099 4.78572 2.8213 4.86992 2.7992 4.96688C2.77711 5.06383 2.79443 5.16558 2.84735 5.24977C3.11836 5.68076 3.53326 5.85839 3.84843 5.93021C3.97786 5.9597 4.0964 5.97287 4.19131 5.97835L5.9608 8.79235C5.84507 9.02168 5.74945 9.2606 5.67499 9.50644C5.52437 10.0121 5.41726 10.7454 5.80571 11.3632C5.85866 11.4473 5.94287 11.507 6.03982 11.5291C6.13677 11.5512 6.23852 11.5339 6.32271 11.481L8.86269 9.88442L10.6593 12.7415C10.7694 12.9166 11.4004 13.6042 11.5755 13.4941C11.7505 13.384 11.4044 12.5167 11.2941 12.3423L9.4975 9.48524L12.0369 7.88779C12.1211 7.83484 12.1808 7.75064 12.2029 7.65369C12.225 7.55674 12.2076 7.45498 12.1547 7.37079C11.7663 6.75304 11.0592 6.53113 10.538 6.44852C10.2842 6.40909 10.0274 6.39175 9.77057 6.39671L8.00091 3.58344C8.04542 3.47644 8.0809 3.36591 8.10698 3.25299C8.17864 2.93856 8.19832 2.48766 7.92674 2.05577C7.87379 1.9718 7.78971 1.91226 7.69294 1.89018ZM7.25177 3.41426L7.25211 3.41279L7.25177 3.41426ZM7.25211 3.41279L7.25177 3.41426C7.216 3.47377 7.19745 3.54205 7.19819 3.61149C7.19894 3.68093 7.21895 3.74879 7.256 3.80753L9.25206 6.98085C9.28919 7.03962 9.34193 7.08691 9.40439 7.11745C9.46684 7.14798 9.53655 7.16055 9.60574 7.15376L9.6072 7.15409L9.6181 7.1535C9.69242 7.14851 9.76688 7.14598 9.84137 7.14592C10.0351 7.14493 10.2286 7.15919 10.4201 7.18857C10.7334 7.23842 11.0301 7.33374 11.2543 7.49407L6.3071 10.6043C6.26065 10.3322 6.30315 10.0242 6.39395 9.72029C6.47211 9.46328 6.57809 9.21556 6.70999 8.98154L6.71508 8.9727L6.71525 8.97197C6.75151 8.91249 6.7705 8.84409 6.77007 8.77442C6.76964 8.70476 6.74981 8.6366 6.71282 8.57757L4.71619 5.40335C4.67781 5.3419 4.62246 5.29289 4.55682 5.26223C4.49119 5.23158 4.41807 5.22059 4.34632 5.2306L4.27246 5.23069C4.20601 5.22862 4.11469 5.22089 4.01524 5.19822C3.93188 5.17923 3.84889 5.15185 3.77109 5.11182L7.40291 2.8287C7.40528 2.91616 7.39383 3.00355 7.375 3.08618C7.34875 3.19973 7.30773 3.30934 7.253 3.41223L7.25211 3.41279Z" fill="#6F6F6F"/>
</g>
<defs>
<clipPath id="clip0_1_165">
<rect width="12" height="12" fill="white" transform="matrix(-0.975003 -0.22219 -0.22219 0.975003 15 3)"/>
</clipPath>
</defs>
</svg>
