<svg width="16" height="17" viewBox="0 0 16 17" fill="none" xmlns="http://www.w3.org/2000/svg">
<path d="M13.652 9.5C13.652 10.7859 13.2492 12.0396 12.5002 13.0849C11.7512 14.1301 10.6935 14.9145 9.47586 15.3279C8.25816 15.7412 6.94158 15.7628 5.71101 15.3895C4.48044 15.0162 3.39771 14.2668 2.61488 13.2466C1.83205 12.2264 1.38845 10.9866 1.34637 9.70137C1.3043 8.41612 1.66587 7.14997 2.3803 6.08076C3.09473 5.01154 4.12613 4.19296 5.32964 3.73999C6.53316 3.28701 7.84834 3.2224 9.09046 3.55523" stroke="#5B5B5B" stroke-width="1.5" stroke-linecap="round"/>
<circle cx="5" cy="8" r="1" fill="#5B5B5B"/>
<circle cx="9" cy="8" r="1" fill="#5B5B5B"/>
<path d="M10.0017 10.4355C10.2778 10.4355 10.5059 10.6609 10.4602 10.9332C10.4227 11.1564 10.36 11.3751 10.273 11.5851C10.122 11.9496 9.90075 12.2808 9.62179 12.5597C9.34283 12.8387 9.01166 13.06 8.64718 13.211C8.28271 13.3619 7.89206 13.4396 7.49756 13.4396C7.10305 13.4396 6.71241 13.3619 6.34793 13.211C5.98345 13.06 5.65228 12.8387 5.37332 12.5597C5.09437 12.2808 4.87308 11.9496 4.72211 11.5851C4.63511 11.3751 4.57244 11.1564 4.53495 10.9332C4.4892 10.6609 4.7173 10.4355 4.99344 10.4355L7.49756 10.4355H10.0017Z" fill="#5B5B5B"/>
<line x1="10.75" y1="3.25" x2="15.25" y2="3.25" stroke="#5B5B5B" stroke-width="1.5" stroke-linecap="round"/>
<line x1="12.75" y1="0.75" x2="12.75" y2="5.25" stroke="#5B5B5B" stroke-width="1.5" stroke-linecap="round"/>
</svg>
