<svg width="13" height="12" viewBox="0 0 13 12" fill="none" xmlns="http://www.w3.org/2000/svg">
<path d="M6.03146 1.25755C6.19313 0.823642 6.80687 0.823643 6.96854 1.25755L7.985 3.98575C8.0552 4.17416 8.23142 4.30219 8.4323 4.31073L11.3411 4.43439C11.8037 4.45406 11.9934 5.03776 11.6306 5.3256L9.35008 7.13538C9.19259 7.26036 9.12528 7.46752 9.17923 7.66121L9.96049 10.4658C10.0847 10.9119 9.58822 11.2726 9.20238 11.0166L6.77645 9.40693C6.60891 9.29577 6.39109 9.29577 6.22355 9.40693L3.79762 11.0166C3.41178 11.2726 2.91526 10.9119 3.03951 10.4658L3.82077 7.66121C3.87472 7.46752 3.80741 7.26036 3.64992 7.13538L1.36935 5.3256C1.00663 5.03776 1.19629 4.45406 1.65892 4.43439L4.5677 4.31073C4.76858 4.30219 4.9448 4.17416 5.015 3.98575L6.03146 1.25755Z" stroke="#6F6F6F" stroke-linecap="round" stroke-linejoin="round"/>
</svg>
